<?xml version="1.0" encoding="utf-8"?>
<!-- Generator: Adobe Illustrator 26.0.1, SVG Export Plug-In . SVG Version: 6.00 Build 0)  -->
<svg version="1.1" id="Layer_1" xmlns="http://www.w3.org/2000/svg" xmlns:xlink="http://www.w3.org/1999/xlink" x="0px" y="0px"
	 viewBox="0 0 400 100" style="enable-background:new 0 0 400 100;" xml:space="preserve">
<style type="text/css">
	.st0{fill:#AEBF2C;}
	.st1{fill:#BF6B04;}
</style>
<g>
	<path class="st0" d="M24.1,90.8c-0.4,0-0.9-0.1-1.4-0.4s-0.9-0.5-1.2-0.8c-0.3-0.3-0.5-0.6-0.6-0.8c1.3-3.9,2.5-7.3,3.4-10.1
		c0.9-2.9,1.7-5.5,2.4-8.1s1.2-5.2,1.7-7.9c0.5-2.7,1-5.9,1.5-9.4c0.5-3.5,1.1-7.8,1.7-12.8c0.1-0.6,0.2-1.1,0.4-1.4
		c0.2-0.3,0.7-0.4,1.5-0.4c1.7,0,2.9,0.4,3.6,1.3c0.7,0.9,1.1,1.9,1.1,2.9c0,0.5-0.1,1.5-0.3,2.8c-0.2,1.3-0.5,2.9-0.8,4.7
		c1-1.5,2.2-3,3.5-4.4c1.3-1.4,2.8-2.5,4.4-3.4s3.3-1.3,5.2-1.3c2.6,0,4.8,0.9,6.5,2.6c1.7,1.8,2.6,4.1,2.6,7c0,2.1-0.5,4.3-1.4,6.6
		c-0.9,2.3-2.3,4.5-4,6.6c-1.7,2.1-3.8,3.7-6.2,5c-2.4,1.3-5,2-7.9,2c-1.7,0-3.1-0.2-4.1-0.6c-1-0.4-1.5-0.9-1.5-1.4
		c0-0.4,0.2-0.6,0.6-0.7c0.4-0.1,0.8-0.1,1.3-0.1c2.5-0.1,4.8-0.6,6.8-1.6c2.1-1,3.8-2.3,5.3-4c1.5-1.6,2.6-3.4,3.4-5.2
		c0.8-1.9,1.2-3.7,1.2-5.5c0-1.6-0.4-3-1.1-4.2c-0.7-1.2-1.9-1.8-3.4-1.8c-1.3,0-2.7,0.4-4,1.3c-1.4,0.9-2.6,1.9-3.8,3.2
		c-1.2,1.3-2.2,2.7-3.1,4.1c-0.9,1.4-1.6,2.7-2.1,3.7c-1,3.5-1.9,7-2.8,10.5c-0.8,3.5-1.6,6.7-2.4,9.7c-0.7,3-1.5,5.5-2.3,7.6
		s-1.6,3.5-2.5,4.2C25,90.7,24.6,90.8,24.1,90.8z"/>
	<path class="st0" d="M66.1,72.2c-1.8,0-3.3-0.6-4.6-1.8c-1.3-1.2-2-2.9-2-5.3c0-1.9,0.4-3.9,1.3-6.1c0.9-2.2,2-4.3,3.5-6.5
		c1.5-2.1,3.2-4.1,5.1-5.8c1.9-1.7,4-3.1,6.2-4.2c2.2-1.1,4.4-1.6,6.6-1.6c2.3,0,4.2,0.6,5.8,1.8c1.6,1.2,2.4,2.7,2.4,4.6
		c0,1.4-0.5,2.5-1.5,3.1c-1,0.6-2.2,0.8-3.6,0.6c0.1-0.5,0.2-1,0.3-1.4s0.1-1,0.1-1.5c0-1.1-0.2-2-0.6-2.9c-0.4-0.9-1.3-1.3-2.7-1.3
		c-1.5,0-3,0.5-4.6,1.5c-1.5,1-3,2.3-4.4,4c-1.4,1.6-2.7,3.4-3.8,5.4c-1.1,1.9-2,3.9-2.6,5.7c-0.6,1.9-1,3.5-1,5
		c0,1.7,0.6,2.6,1.8,2.6c1.2,0,2.6-0.6,4.1-1.8c1.5-1.2,3-2.7,4.5-4.5c1.5-1.8,3-3.7,4.4-5.6c1.4-1.9,2.6-3.5,3.6-4.8
		c0.2-0.3,0.4-0.4,0.6-0.4c0.2,0.1,0.6,0.2,1.2,0.4c0.6,0.2,1.2,0.5,1.7,0.8c0.5,0.4,0.8,0.9,0.8,1.4c0,0.5-0.2,1.2-0.7,2
		c-0.5,0.8-1,1.7-1.6,2.7c-0.6,1-1.1,2-1.6,3c-0.5,1-0.7,1.9-0.7,2.8c0,0.7,0.2,1.3,0.6,2c0.4,0.6,1,0.9,1.8,0.9
		c1.3,0,3.1-0.9,5.4-2.8c2.3-1.9,4.7-5.1,7.1-9.6l1.5,1.5c-1.3,2.9-2.8,5.4-4.6,7.6c-1.8,2.2-3.7,3.9-5.6,5.2c-2,1.3-4,1.9-6,1.9
		c-2.2,0-3.8-0.7-4.9-2.1c-1.1-1.4-1.7-2.9-1.8-4.5c0-0.1,0-0.2,0-0.2c0-0.1,0-0.1,0-0.2c-2.1,2.6-4.1,4.6-5.9,6.1
		C70,71.5,68.1,72.2,66.1,72.2z"/>
	<path class="st0" d="M104,70.8c-2.5,0-4.3-0.8-5.2-2.5c-1-1.7-1.5-3.7-1.5-6c0-2.6,0.5-5.7,1.4-9.2c1-3.5,2.2-7.2,3.8-11.1
		c1.6-3.9,3.3-7.7,5.2-11.4c1.9-3.7,3.8-7.1,5.7-10c1.9-3,3.7-5.4,5.3-7.2c1.6-1.8,2.9-2.7,4-2.7c0.7,0,1.3,0.4,1.8,1.1
		s0.9,1.6,1.2,2.6c0.3,1,0.4,1.9,0.4,2.8c0,1.4-0.4,3.3-1.1,5.6c-0.7,2.3-1.7,4.9-3,7.6c-1.3,2.8-2.9,5.6-4.6,8.5
		c-1.8,2.9-3.8,5.7-5.9,8.3c-2.2,2.6-4.5,4.9-6.9,6.8c-0.2,1.3-0.4,2.7-0.6,4c-0.2,1.3-0.3,2.5-0.3,3.6c0,1.9,0.3,3.3,1,4.2
		s1.5,1.3,2.5,1.3c1.3,0,2.7-0.6,4.1-1.9c1.4-1.3,2.8-2.9,4.1-4.8c1.3-1.9,2.4-4,3.4-6l1.9,1c-2.3,4.7-4.9,8.5-7.7,11.2
		C110.1,69.5,107.1,70.8,104,70.8z M106,49.2c1.8-2,3.5-4.1,5.2-6.4c1.6-2.3,3.1-4.7,4.5-7.1c1.4-2.4,2.5-4.7,3.6-7
		c1-2.2,1.8-4.3,2.4-6c0.6-1.8,0.9-3.2,0.9-4.3c0-0.1,0-0.1,0-0.1c0,0,0-0.1,0-0.1c-0.4,0-1.1,0.6-2,1.8c-0.9,1.2-2,2.8-3.3,4.9
		c-1.3,2.1-2.6,4.5-4,7.1c-1.4,2.7-2.7,5.5-3.9,8.4C107.9,43.4,106.9,46.3,106,49.2z"/>
	<path class="st0" d="M126,72c-3.4,0-6-0.9-7.9-2.8c-1.8-1.8-2.8-4.1-2.8-6.9c0-2.3,0.6-4.8,1.8-7.5c1.2-2.6,2.8-5.1,4.8-7.4
		c2-2.3,4.3-4.2,6.7-5.6c2.5-1.4,4.9-2.2,7.4-2.2c1.4,0,2.7,0.4,4,1.1c1.3,0.7,1.9,2.1,1.9,4.3c0,2-0.6,3.9-1.8,5.7
		c-1.2,1.8-2.7,3.3-4.7,4.7c-2,1.4-4.1,2.5-6.5,3.4c-2.4,0.9-4.8,1.5-7.2,1.7c-0.1,0.2-0.1,0.4-0.1,0.7c0,0.2,0,0.6,0,1.2
		c0,0.3,0,0.7,0.1,1.4c0.1,0.7,0.3,1.4,0.7,2.1c0.4,0.7,1,1.4,1.8,1.9c0.9,0.5,2,0.8,3.5,0.8c2.2,0,4.5-0.6,6.8-1.9
		c2.3-1.3,4.4-2.9,6.4-5s3.7-4.4,5-7l1.6,1.3c-1.4,3.2-3.3,6-5.6,8.4c-2.3,2.4-4.8,4.3-7.5,5.6C131.7,71.3,128.9,72,126,72z
		 M122.7,57.5c1.4-0.2,2.9-0.6,4.6-1.4c1.7-0.8,3.3-1.8,4.9-3c1.6-1.2,2.9-2.6,3.9-4c1-1.5,1.5-2.9,1.5-4.4c0-0.6-0.1-1-0.3-1.2
		c-0.2-0.2-0.6-0.3-1-0.3c-1.2,0-2.5,0.4-3.8,1.3c-1.3,0.9-2.6,2-3.9,3.4c-1.3,1.4-2.4,3-3.4,4.7C124.1,54.2,123.3,55.8,122.7,57.5z
		"/>
	<path class="st0" d="M149.3,71c-2.4,0-4-0.8-4.9-2.4c-0.9-1.6-1.3-3.3-1.3-5.2c0-1.7,0.3-3.5,0.8-5.2c0.5-1.8,1.3-3.5,2.2-5
		c0.9-1.5,2-2.8,3.1-3.7c1.1-0.9,2.3-1.4,3.5-1.4c0.4,0,0.8,0.1,1.3,0.2c0.5,0.1,0.9,0.3,1.1,0.6c-0.6,0.8-1.3,1.8-2,3
		c-0.7,1.2-1.3,2.4-1.8,3.7c-0.6,1.3-1,2.6-1.3,4c-0.3,1.3-0.5,2.6-0.5,3.7c0,1.1,0.2,1.9,0.6,2.6c0.4,0.7,1.1,1,2.1,1
		c1,0,2.2-0.6,3.6-1.7c1.4-1.1,2.8-2.5,4-4c-1.7-1.5-2.9-3.2-3.7-5.1c-0.7-1.8-1.1-4.1-1.1-6.7c0-1.1,0.3-2.4,0.8-3.8
		c0.6-1.4,1.5-2.7,2.7-3.8c1.3-1.1,2.9-1.6,5.1-1.6c2.3,0,3.9,0.6,4.8,1.9c0.9,1.3,1.4,2.8,1.4,4.6c0,2-0.5,4.2-1.6,6.6
		c-1,2.5-2.3,4.8-3.7,7c0.6,0.3,1.4,0.5,2.2,0.5c0.8,0,1.8-0.2,2.9-0.6c1.1-0.4,2.2-1,3.3-1.9c1.1-0.9,1.9-2.1,2.6-3.6l1.4,1
		c-1.2,2.7-2.7,4.7-4.7,6c-1.9,1.3-3.9,1.9-5.7,1.9c-0.7,0-1.4-0.1-2.1-0.2c-0.7-0.1-1.3-0.3-1.9-0.5c-1.8,2.1-3.9,4-6.2,5.6
		C154.1,70.2,151.7,71,149.3,71z M161.9,58.7c1.3-1.9,2.4-3.9,3.3-6c0.9-2.1,1.4-4.1,1.4-5.9c0-1.2-0.2-2.1-0.6-2.7
		c-0.4-0.6-0.9-0.8-1.7-0.8c-1,0-2.1,0.7-3.1,2.2c-1.1,1.4-1.6,3.3-1.6,5.4c0,1.1,0.2,2.5,0.6,4.1C160.6,56.5,161.2,57.8,161.9,58.7
		z"/>
	<path class="st0" d="M209.4,70.5c-2,0-3.6-0.5-4.8-1.6c-1.2-1-1.8-2.4-1.8-4.2c0-1.5,0.4-3.1,1.1-4.8c0.7-1.7,1.5-3.4,2.3-5
		c0.8-1.7,1.2-3.1,1.2-4.4c0-1.2-0.4-2.3-1.2-3.1c-0.8-0.8-1.7-1.5-2.8-2c-1.2,2.9-2.5,5.8-4,8.5c-1.5,2.7-2.7,4.9-3.6,6.4l-1.2-2.3
		c0.7-1.4,1.7-3.4,3-5.9c1.2-2.6,2.4-5.4,3.5-8.6c-0.5-0.5-0.8-1.3-0.8-2.2c0-1.4,0.4-2.7,1.3-3.9c0.9-1.2,1.7-1.8,2.5-1.8
		c0.6,0,1.1,0.4,1.4,1.1c0.3,0.7,0.4,1.2,0.4,1.5c0,0.3-0.1,0.7-0.4,1.4c-0.2,0.7-0.4,1.2-0.5,1.5c0.1,0.6,0.5,1.2,1.4,1.7
		s1.9,1.2,3,2c1.1,0.7,2.1,1.7,3,2.8c0.9,1.1,1.3,2.5,1.3,4.2c0,1.5-0.3,3.1-1,4.7c-0.7,1.6-1.4,3.1-2.1,4.5c-0.7,1.4-1,2.6-1,3.6
		c0,0.7,0.2,1.2,0.6,1.5c0.4,0.2,0.9,0.4,1.4,0.4c1.3,0,2.6-0.4,4-1.2c1.4-0.8,2.7-1.8,4.1-3c1.3-1.2,2.5-2.5,3.5-3.9
		c1-1.4,1.8-2.6,2.3-3.7l1.9,1.4c-1,2.3-2.5,4.5-4.4,6.8c-1.9,2.2-4.1,4-6.4,5.4C214.2,69.8,211.8,70.5,209.4,70.5z"/>
	<path class="st0" d="M232.9,72c-3.4,0-6-0.9-7.9-2.8c-1.8-1.8-2.8-4.1-2.8-6.9c0-2.3,0.6-4.8,1.8-7.5c1.2-2.6,2.8-5.1,4.8-7.4
		c2-2.3,4.3-4.2,6.7-5.6c2.5-1.4,4.9-2.2,7.4-2.2c1.4,0,2.7,0.4,4,1.1c1.3,0.7,1.9,2.1,1.9,4.3c0,2-0.6,3.9-1.8,5.7
		c-1.2,1.8-2.7,3.3-4.7,4.7c-2,1.4-4.1,2.5-6.5,3.4c-2.4,0.9-4.8,1.5-7.2,1.7c-0.1,0.2-0.1,0.4-0.1,0.7c0,0.2,0,0.6,0,1.2
		c0,0.3,0,0.7,0.1,1.4c0.1,0.7,0.3,1.4,0.7,2.1c0.4,0.7,1,1.4,1.8,1.9c0.9,0.5,2,0.8,3.5,0.8c2.2,0,4.5-0.6,6.8-1.9
		c2.3-1.3,4.4-2.9,6.4-5s3.7-4.4,5-7l1.6,1.3c-1.4,3.2-3.3,6-5.6,8.4c-2.3,2.4-4.8,4.3-7.5,5.6C238.6,71.3,235.8,72,232.9,72z
		 M229.5,57.5c1.4-0.2,2.9-0.6,4.6-1.4c1.7-0.8,3.3-1.8,4.9-3c1.6-1.2,2.9-2.6,3.9-4c1-1.5,1.5-2.9,1.5-4.4c0-0.6-0.1-1-0.3-1.2
		c-0.2-0.2-0.6-0.3-1-0.3c-1.2,0-2.5,0.4-3.8,1.3s-2.6,2-3.9,3.4c-1.3,1.4-2.4,3-3.4,4.7C230.9,54.2,230.1,55.8,229.5,57.5z"/>
	<path class="st0" d="M259.9,72.9c-2.8,0-5.1-0.9-6.8-2.6c-1.8-1.7-2.7-4.4-2.7-8c0-2.6,0.5-5.2,1.5-7.7c1-2.5,2.4-4.8,4.1-6.8
		c1.7-2,3.6-3.6,5.7-4.8c2.1-1.2,4.3-1.8,6.4-1.8c2.2,0,3.9,0.6,4.8,1.7c1,1.1,1.5,2.4,1.5,3.9c0,1.5-0.4,2.9-1.1,4.4
		c-0.7,1.4-1.7,2.1-2.9,2.1c-1,0-1.8-0.5-2.5-1.5c0.5-0.4,1.1-1.1,1.7-2.1c0.6-1,0.9-2.3,0.9-3.9c0-0.4-0.1-0.8-0.3-1
		c-0.2-0.2-0.6-0.4-1.2-0.4c-1.3,0-2.7,0.6-4.2,1.8c-1.5,1.2-2.8,2.7-4.1,4.6c-1.3,1.9-2.3,3.9-3,6c-0.8,2.1-1.2,4-1.2,5.8
		c0,1.5,0.4,2.9,1.2,4.1c0.8,1.3,2.3,1.9,4.5,1.9c2,0,4.1-0.6,6.3-1.8c2.2-1.2,4.2-2.8,6.2-4.9c1.9-2.1,3.5-4.6,4.6-7.6L281,56
		c-1.3,3.3-3.1,6.1-5.3,8.7c-2.3,2.5-4.8,4.5-7.5,6C265.4,72.2,262.7,72.9,259.9,72.9z"/>
	<path class="st0" d="M283.9,70.8c-2.3,0-4.1-0.7-5.3-2.1c-1.2-1.4-1.8-3.1-1.8-5c0-1.2,0.2-2.8,0.6-4.6c0.4-1.9,1-3.8,1.8-5.9
		c0.8-2.1,1.7-4,2.7-5.8c1-1.8,2.1-3.3,3.3-4.4c1.2-1.1,2.3-1.7,3.5-1.7c0.6,0,1.2,0.2,1.7,0.6c0.5,0.4,0.7,1,0.7,1.7
		c0,0.7-0.4,1.7-1.2,3.1c-0.8,1.4-1.8,3-2.9,4.8c-1.1,1.8-2.1,3.7-2.9,5.6c-0.8,1.9-1.2,3.8-1.2,5.6c0,1.7,0.3,2.8,0.9,3.4
		c0.6,0.6,1.5,0.8,2.7,0.8c1.8,0,3.8-0.9,5.9-2.7c2.1-1.8,4.3-5,6.6-9.5l1.2,1.3c-1.9,4.7-4.2,8.3-7.1,11S287.3,70.8,283.9,70.8z
		 M293.4,34.8c-1,0-1.9-0.3-2.8-0.8c-0.8-0.5-1.2-1.3-1.2-2.4c0-1.3,0.7-2.4,2.1-3.3c1.4-0.9,2.8-1.4,4.3-1.4c1,0,1.8,0.2,2.4,0.6
		c0.7,0.4,1,1.2,1,2.3s-0.6,2.2-1.8,3.2C296.2,34.2,294.8,34.8,293.4,34.8z"/>
	<path class="st0" d="M292.6,90.8c-0.4,0-0.9-0.1-1.4-0.4c-0.5-0.2-0.9-0.5-1.2-0.8c-0.3-0.3-0.5-0.6-0.6-0.8
		c1.3-3.9,2.5-7.3,3.4-10.1c0.9-2.9,1.7-5.5,2.4-8.1s1.2-5.2,1.7-7.9c0.5-2.7,1-5.9,1.5-9.4c0.5-3.5,1.1-7.8,1.7-12.8
		c0.1-0.6,0.2-1.1,0.4-1.4c0.2-0.3,0.7-0.4,1.5-0.4c1.7,0,2.9,0.4,3.6,1.3s1.1,1.9,1.1,2.9c0,0.5-0.1,1.5-0.3,2.8
		c-0.2,1.3-0.5,2.9-0.8,4.7c1-1.5,2.2-3,3.5-4.4c1.3-1.4,2.8-2.5,4.4-3.4c1.6-0.9,3.3-1.3,5.2-1.3c2.6,0,4.8,0.9,6.5,2.6
		c1.7,1.8,2.6,4.1,2.6,7c0,2.1-0.5,4.3-1.4,6.6c-0.9,2.3-2.3,4.5-4,6.6c-1.7,2.1-3.8,3.7-6.2,5c-2.4,1.3-5,2-7.9,2
		c-1.7,0-3.1-0.2-4.1-0.6c-1-0.4-1.5-0.9-1.5-1.4c0-0.4,0.2-0.6,0.6-0.7c0.4-0.1,0.8-0.1,1.3-0.1c2.5-0.1,4.8-0.6,6.8-1.6
		c2.1-1,3.8-2.3,5.3-4c1.5-1.6,2.6-3.4,3.4-5.2c0.8-1.9,1.2-3.7,1.2-5.5c0-1.6-0.4-3-1.1-4.2c-0.7-1.2-1.9-1.8-3.4-1.8
		c-1.3,0-2.7,0.4-4,1.3c-1.4,0.9-2.6,1.9-3.8,3.2c-1.2,1.3-2.2,2.7-3.1,4.1c-0.9,1.4-1.6,2.7-2.1,3.7c-1,3.5-1.9,7-2.8,10.5
		c-0.8,3.5-1.6,6.7-2.4,9.7c-0.7,3-1.5,5.5-2.3,7.6s-1.6,3.5-2.5,4.2C293.5,90.7,293.1,90.8,292.6,90.8z"/>
	<path class="st0" d="M339.4,72c-3.4,0-6-0.9-7.9-2.8c-1.8-1.8-2.8-4.1-2.8-6.9c0-2.3,0.6-4.8,1.8-7.5c1.2-2.6,2.8-5.1,4.8-7.4
		c2-2.3,4.3-4.2,6.7-5.6c2.5-1.4,4.9-2.2,7.4-2.2c1.4,0,2.7,0.4,4,1.1c1.3,0.7,1.9,2.1,1.9,4.3c0,2-0.6,3.9-1.8,5.7
		c-1.2,1.8-2.7,3.3-4.7,4.7c-2,1.4-4.1,2.5-6.5,3.4c-2.4,0.9-4.8,1.5-7.2,1.7c-0.1,0.2-0.1,0.4-0.1,0.7c0,0.2,0,0.6,0,1.2
		c0,0.3,0,0.7,0.1,1.4c0.1,0.7,0.3,1.4,0.7,2.1c0.4,0.7,1,1.4,1.8,1.9c0.9,0.5,2,0.8,3.5,0.8c2.2,0,4.5-0.6,6.8-1.9
		c2.3-1.3,4.4-2.9,6.4-5s3.7-4.4,5-7l1.6,1.3c-1.4,3.2-3.3,6-5.6,8.4c-2.3,2.4-4.8,4.3-7.5,5.6C345.1,71.3,342.3,72,339.4,72z
		 M336,57.5c1.4-0.2,2.9-0.6,4.6-1.4c1.7-0.8,3.3-1.8,4.9-3c1.6-1.2,2.9-2.6,3.9-4c1-1.5,1.5-2.9,1.5-4.4c0-0.6-0.1-1-0.3-1.2
		c-0.2-0.2-0.6-0.3-1-0.3c-1.2,0-2.5,0.4-3.8,1.3s-2.6,2-3.9,3.4c-1.3,1.4-2.4,3-3.4,4.7C337.4,54.2,336.6,55.8,336,57.5z"/>
	<path class="st0" d="M366.7,72.5c-2.7,0-4.8-0.5-6.4-1.6c-1.6-1.1-2.8-2.5-3.5-4.2c-0.7-1.7-1-3.4-1-5.2c0-1.5,0.2-2.7,0.6-3.6
		c0.4-0.9,1-1.5,1.6-1.9c0.6-0.4,1.2-0.7,1.8-0.9c0.6-0.2,1-0.5,1.2-0.7c1.3-1.4,2.7-3,4.1-4.8c1.4-1.8,2.6-3.9,3.6-6.1v-0.8
		c0-2.1,0.4-3.6,1.1-4.5c0.7-0.9,1.6-1.3,2.5-1.3c0.6,0,1.1,0.2,1.4,0.5c0.3,0.3,0.5,0.7,0.5,1.1c0,0.3-0.1,0.7-0.2,1.1
		c-0.1,0.4-0.2,1-0.2,1.8c0,1.6,0.4,3.4,1.2,5.5c0.8,2.1,1.5,4.2,2.3,6.5c0.8,2.3,1.2,4.6,1.2,7c0,0.6,0,1.2-0.1,1.8
		c-0.1,0.5-0.1,1-0.2,1.5c1.7-0.4,3.3-1.3,4.9-2.8c1.6-1.4,3.1-3.5,4.6-6.3l1,0.7c-1,3-2.5,5.5-4.4,7.3s-4.2,3-6.7,3.4
		c-0.9,2.2-2.3,3.8-4.2,4.9C371.4,72,369.2,72.5,366.7,72.5z M366.2,69c1.1,0,2.1-0.3,3-0.8c0.9-0.5,1.6-1.3,2.2-2.3
		c-2.2-0.5-4.2-1.3-5.9-2.6c-1.8-1.2-3.1-2.5-4.1-3.8c-0.7,0.2-1.1,0.9-1.1,2.2c0,1.8,0.5,3.4,1.5,5C362.7,68.2,364.2,69,366.2,69z
		 M371.9,63.5c0.1-0.4,0.2-0.8,0.2-1.3c0-0.5,0-0.9,0-1.2c-0.1-2.4-0.4-4.8-1-7.1c-0.6-2.3-1.2-4.7-1.8-7.2c-1,1.7-2.1,3.4-3.4,5.4
		c-1.3,1.9-2.5,3.5-3.6,4.6c0.9,1.4,2.1,2.8,3.8,4.1C367.9,62,369.8,63,371.9,63.5z"/>
</g>
<g>
	<g>
		<g>
			<path class="st1" d="M291,16.2c-1.5-1.8-3.5-3.2-6.4-3.6c1.7,2.7-0.7,6.8-0.2,9.9c0.3,2.5,3.8,4,6.8,5.3l1,0.4
				c-0.6-0.9-1.7-2.6-2.2-3.6c-0.3-0.5-0.5-0.9-0.7-1.4c-0.1-0.1-0.1-0.2-0.2-0.4l-0.1-0.2c0-0.1,0-0.1-0.1-0.2l-0.1-0.4l-0.1-0.4
				c-0.2-0.5-0.3-1-0.4-1.5c-0.1-0.3-0.1-0.5-0.1-0.8c0-0.1,0-0.3,0-0.4c0-0.1,0-0.3,0-0.4c0,0.1,0,0.3,0,0.4c0,0.1,0.1,0.3,0.1,0.4
				c0.1,0.2,0.2,0.5,0.3,0.7c0.2,0.5,0.4,1,0.7,1.4l0.2,0.3l0.2,0.3l0.2,0.3c0.1,0.1,0.1,0.2,0.2,0.3c0.3,0.4,0.6,0.9,0.9,1.3
				c0.6,0.9,1.3,1.7,2,2.5c0.2,0.2,0.4,0.5,0.6,0.7C293.6,23.5,293.8,19.6,291,16.2z"/>
		</g>
	</g>
	<g>
		<g>
			<path class="st0" d="M297.2,12.5c1.7-2,3.9-3.6,7.2-4c-1.9,3,0.7,7.5,0.3,11c-0.4,2.8-4.2,4.4-7.6,5.9L296,26
				c0.7-1,1.9-2.9,2.5-4c0.3-0.5,0.6-1.1,0.8-1.6c0.1-0.1,0.1-0.3,0.2-0.4l0.1-0.2c0-0.1,0-0.1,0.1-0.2l0.1-0.4l0.1-0.4
				c0.2-0.6,0.3-1.1,0.5-1.7c0.1-0.3,0.1-0.6,0.1-0.9c0-0.1,0-0.3,0-0.4c0-0.1,0-0.3,0-0.4c0,0.1,0,0.3-0.1,0.4
				c0,0.1-0.1,0.3-0.1,0.4c-0.1,0.3-0.2,0.6-0.3,0.8c-0.2,0.5-0.5,1.1-0.7,1.6l-0.2,0.4l-0.2,0.4l-0.2,0.4c-0.1,0.1-0.1,0.2-0.2,0.4
				c-0.3,0.5-0.6,1-1,1.5c-0.7,0.9-1.4,1.9-2.2,2.8c-0.2,0.3-0.4,0.5-0.7,0.8C294.3,20.7,294.1,16.3,297.2,12.5z"/>
		</g>
	</g>
</g>
<g>
</g>
<g>
</g>
<g>
</g>
<g>
</g>
<g>
</g>
</svg>
